<?xml version="1.0" encoding="utf-8"?>
<!-- Generator: Adobe Illustrator 24.0.1, SVG Export Plug-In . SVG Version: 6.00 Build 0)  -->
<svg version="1.1" id="Layer_1" xmlns="http://www.w3.org/2000/svg" xmlns:xlink="http://www.w3.org/1999/xlink" x="0px" y="0px"
	 viewBox="0 0 360.2 98.7" style="enable-background:new 0 0 360.2 98.7;" xml:space="preserve">
<style type="text/css">
	.st0{fill:none;stroke:#8566FF;stroke-miterlimit:10;}
</style>
<g>
	<path class="st0" d="M69.4,43H39.1c-0.8,0-1.4,0.6-1.4,1.4v14.8c0,0.8,0.6,1.4,1.4,1.4h11.8v18.4c0,0-2.7,0.9-10,0.9
		c-8.7,0-20.7-3.2-20.7-29.7c0-26.6,12.6-30.1,24.4-30.1c10.2,0,14.6,1.8,17.4,2.7c0.9,0.3,1.7-0.6,1.7-1.4l3.4-14.3
		c0-0.4-0.1-0.8-0.5-1.1c-1.1-0.8-8.1-4.7-25.6-4.7C20.7,1.3,0,9.9,0,51.3s23.7,47.5,43.7,47.5c16.6,0,26.6-7.1,26.6-7.1
		c0.4-0.2,0.5-0.8,0.5-1.1V44.4C70.8,43.7,70.2,43,69.4,43z"/>
	<path class="st0" d="M225.4,6.3c0-0.8-0.6-1.4-1.4-1.4h-17c-0.8,0-1.4,0.6-1.4,1.4v32.9H179V6.3c0-0.8-0.6-1.4-1.4-1.4h-17
		c-0.8,0-1.4,0.6-1.4,1.4v89.2c0,0.8,0.6,1.4,1.4,1.4h17c0.8,0,1.4-0.6,1.4-1.4V57.3h26.6l-0.1,38.1c0,0.8,0.6,1.4,1.4,1.4H224
		c0.8,0,1.4-0.6,1.4-1.4L225.4,6.3L225.4,6.3z"/>
	<g>
		<g>
			<path class="st0" d="M101.5,18c0-6.1-4.9-11.1-11-11.1c-6.1,0-11,5-11,11.1c0,6.1,4.9,11.1,11,11.1S101.5,24.1,101.5,18z"/>
			<path class="st0" d="M100.3,76.7c0-2.3,0-41.2,0-41.2c0-0.8-0.6-1.4-1.4-1.4h-17c-0.8,0-1.5,0.8-1.5,1.6c0,0,0,49.5,0,59
				c0,1.7,1.1,2.3,2.5,2.3c0,0,7.3,0,15.3,0c1.7,0,2.1-0.8,2.1-2.3C100.3,91.4,100.3,79.1,100.3,76.7z"/>
		</g>
	</g>
	<path class="st0" d="M290.1,34.2h-16.9c-0.8,0-1.4,0.6-1.4,1.4v43.7c0,0-4.3,3.1-10.4,3.1c-6.1,0-7.7-2.8-7.7-8.7
		c0-6,0-38.1,0-38.1c0-0.8-0.6-1.4-1.4-1.4h-17.2c-0.8,0-1.4,0.6-1.4,1.4c0,0,0,23.3,0,41s9.9,22.1,23.5,22.1
		c11.1,0,20.1-6.2,20.1-6.2s0.4,3.3,0.6,3.6s0.7,0.8,1.2,0.8l10.9-0.1c0.8,0,1.4-0.6,1.4-1.4l0-59.9
		C291.5,34.8,290.9,34.2,290.1,34.2z"/>
	<path class="st0" d="M336.4,32.2c-9.6,0-16.1,4.3-16.1,4.3V6.3c0-0.8-0.6-1.4-1.4-1.4h-17.1c-0.8,0-1.4,0.6-1.4,1.4v89.2
		c0,0.8,0.6,1.4,1.4,1.4c0,0,11.9,0,11.9,0c0.5,0,0.9-0.3,1.2-0.8c0.3-0.5,0.7-4.1,0.7-4.1s7,6.6,20.2,6.6
		c15.5,0,24.4-7.9,24.4-35.4C360.2,35.8,346,32.2,336.4,32.2z M329.7,82.5c-5.9-0.2-9.8-2.8-9.8-2.8V51.4c0,0,3.9-2.4,8.7-2.8
		c6.1-0.5,12,1.3,12,15.8C340.5,79.7,337.9,82.7,329.7,82.5z"/>
	<path class="st0" d="M149.3,34.1h-12.8c0,0,0-16.9,0-16.9c0-0.6-0.3-1-1.1-1H118c-0.7,0-1,0.3-1,1v17.4c0,0-8.7,2.1-9.3,2.3
		s-1,0.7-1,1.4v11c0,0.8,0.6,1.4,1.4,1.4h8.9c0,0,0,11.5,0,26.4c0,19.6,13.8,21.5,23,21.5c4.2,0,9.3-1.4,10.1-1.7
		c0.5-0.2,0.8-0.7,0.8-1.3l0-12.1c0-0.8-0.7-1.4-1.4-1.4c-0.7,0-2.6,0.3-4.6,0.3c-6.3,0-8.4-2.9-8.4-6.7s0-25.1,0-25.1h12.8
		c0.8,0,1.4-0.6,1.4-1.4V35.5C150.7,34.7,150.1,34.1,149.3,34.1z"/>
</g>
</svg>
