<svg xmlns="http://www.w3.org/2000/svg" xmlns:xlink="http://www.w3.org/1999/xlink" viewBox="0 0 37 33" fill="#fff" fill-rule="evenodd" stroke="#000" stroke-linecap="round" stroke-linejoin="round"><use xlink:href="#A" x=".5" y=".5"/><symbol id="A" overflow="visible"><g stroke="none" fill-rule="nonzero"><use xlink:href="#C" fill="#a0dcf2"/><use xlink:href="#C" fill="#82bde7"/><path d="M6.533 17.514l-.289 1.005s-.075.363.267.428c.357-.007.328-.342.303-.45l-.282-.983z" fill="#a0dcf2"/><path d="M35.593 13.299l.026-.131c-2.933-.586-5.942-.592-7.764-.517.299-1.077.389-2.317.389-3.7 0-1.983-.745-3.569-1.955-4.777.211-.682.494-2.197-.282-4.137 0 0-1.37-.434-4.463 1.637-1.212-.303-2.503-.453-3.795-.453-1.422 0-2.859.181-4.199.549C10.356-.409 8.946.038 8.946.038c-.921 2.304-.351 4.005-.179 4.429a6.41 6.41 0 0 0-1.742 4.485c0 1.38.157 2.617.541 3.692-1.836-.067-4.736-.041-7.566.524l.026.131c2.845-.569 5.762-.589 7.586-.52a6.98 6.98 0 0 0 .284.647c-1.805.058-4.886.288-7.839 1.121l.036.128c2.976-.839 6.084-1.064 7.872-1.118 1.078 2.01 3.204 3.308 6.986 3.713-.537.361-1.084.974-1.307 2.012-.731.349-3.047 1.204-4.436-1.186 0 0-.778-1.422-2.266-1.533 0 0-1.444-.02-.1.9 0 0 .966.455 1.633 2.165 0 0 .87 2.918 5.066 1.982v3.014s-.089 1.066-1.066 1.421c0 0-.577.4.044.622 0 0 2.71.222 2.71-1.999v-3.287s-.107-1.304.533-1.757v5.403s-.044 1.288-.711 1.777c0 0-.444.799.533.577 0 0 1.865-.267 1.954-2.443l.042-5.463h.448l.041 5.465c.089 2.176 1.954 2.443 1.954 2.443.977.222.533-.577.533-.577-.666-.489-.711-1.777-.711-1.777v-5.352c.64.496.533 1.71.533 1.71v3.285c0 2.221 2.709 1.999 2.709 1.999.622-.222.045-.622.045-.622-.977-.357-1.066-1.421-1.066-1.421V20.32c0-1.68-.708-2.57-1.399-3.04 4.031-.4 5.968-1.702 6.86-3.726 1.767.048 4.946.264 7.987 1.122l.036-.128c-3.024-.853-6.182-1.074-7.966-1.126.085-.205.158-.417.224-.635 1.808-.079 4.831-.076 7.775.512" fill="#292929"/><path d="M24.3 8.857c.869.787 1.377 1.738 1.377 2.761 0 4.781-3.564 4.91-7.96 4.91s-7.96-.662-7.96-4.908c0-1.017.501-1.962 1.359-2.745 1.431-1.306 3.853-.615 6.601-.615 2.737 0 5.15-.699 6.583.599" fill="#f5cdb5"/><path d="M15.071 11.863c0 1.317-.741 2.384-1.656 2.384s-1.657-1.067-1.657-2.384.742-2.384 1.657-2.384 1.656 1.067 1.656 2.384"/><path d="M14.539 11.893c0 .878-.496 1.589-1.104 1.589s-1.104-.711-1.104-1.589.494-1.59 1.104-1.59 1.104.712 1.104 1.59" fill="#b1645a"/><path d="M23.956 11.863c0 1.317-.742 2.384-1.657 2.384s-1.656-1.067-1.656-2.384.742-2.384 1.656-2.384 1.657 1.067 1.657 2.384"/><path d="M23.424 11.893c0 .878-.496 1.589-1.104 1.589s-1.104-.711-1.104-1.589.496-1.59 1.104-1.59 1.104.712 1.104 1.59m-5.269 2.085c0 .229-.185.414-.414.414s-.414-.185-.414-.414.185-.414.414-.414.414.185.414.414m-1.379 1.048c-.016-.045-.007-.095.024-.131s.079-.053.126-.044.085.042.101.087c.106.301.392.503.71.503s.604-.202.711-.503c.025-.069.101-.106.17-.081s.106.101.081.17c-.147.405-.531.674-.962.674s-.815-.27-.961-.674" fill="#b1645a"/><g fill="#c5e6da"><path d="M7.593 16.921c0 .111-.129.2-.289.2s-.289-.089-.289-.2.129-.2.289-.2.289.089.289.2m.8.444c0 .111-.129.2-.289.2s-.289-.089-.289-.2.129-.2.289-.2.289.089.289.2m.489.576c0 .11-.129.2-.289.2s-.289-.089-.289-.2.129-.2.289-.2.289.089.289.2m.444.667c0 .111-.129.2-.289.2s-.289-.089-.289-.2.129-.2.289-.2.289.089.289.2m.489.624c0 .11-.129.2-.289.2s-.289-.089-.289-.2.129-.2.289-.2.289.089.289.2m.667.533c0 .111-.129.2-.289.2s-.289-.089-.289-.2.129-.2.289-.2.289.089.289.2"/><use xlink:href="#D"/><use xlink:href="#D" x="0.929"/><path d="M13.285 19.965c0 .111-.129.2-.289.2s-.289-.089-.289-.2.129-.2.289-.2.289.089.289.2"/></g></g></symbol><defs ><path id="C" d="M27.947 27.801c0 1.932-4.476 3.498-9.996 3.498s-9.996-1.566-9.996-3.498 4.475-3.499 9.996-3.499 9.996 1.569 9.996 3.499"/><path id="D" d="M11.414 20.12c0 .11-.129.2-.289.2s-.289-.089-.289-.2.129-.2.289-.2.289.089.289.2"/></defs></svg>