<?xml version="1.0" encoding="utf-8"?>
<!-- Generator: Adobe Illustrator 24.0.1, SVG Export Plug-In . SVG Version: 6.00 Build 0)  -->
<svg version="1.1" id="Layer_1" xmlns="http://www.w3.org/2000/svg" xmlns:xlink="http://www.w3.org/1999/xlink" x="0px" y="0px"
	 viewBox="0 0 37 33" style="enable-background:new 0 0 37 33;" xml:space="preserve">
<style type="text/css">
	.st0{fill:none;stroke:#8566FF;stroke-width:0.25;stroke-miterlimit:10;}
	.st1{fill:#FFFFFF;}
	.st2{fill:#8566FF;}
	.st3{fill:none;stroke:#8566FF;stroke-width:0.1;stroke-miterlimit:10;}
</style>
<symbol  id="A" viewBox="-17.8 -15.6 35.6 31.4">
	<g>
		<g>
			<path id="C_4_" class="st0" d="M10.1,12.2c0,1.9-4.5,3.5-10,3.5s-10-1.6-10-3.5s4.5-3.5,10-3.5S10.1,10.2,10.1,12.2"/>
		</g>
		<path class="st1" d="M-11.3,1.9l-0.3,1c0,0-0.1,0.4,0.3,0.4c0.4,0,0.3-0.3,0.3-0.5L-11.3,1.9L-11.3,1.9z"/>
		<path class="st2" d="M17.8-2.4l0-0.1C14.9-3.1,11.9-3.1,10-3c0.3-1.1,0.4-2.3,0.4-3.7c0-2-0.7-3.6-2-4.8c0.2-0.7,0.5-2.2-0.3-4.1
			c0,0-1.4-0.4-4.5,1.6c-1.2-0.3-2.5-0.5-3.8-0.5c-1.4,0-2.9,0.2-4.2,0.5c-3.2-2.2-4.6-1.7-4.6-1.7c-0.9,2.3-0.4,4-0.2,4.4
			c-1.1,1.2-1.8,2.8-1.7,4.5c0,1.4,0.2,2.6,0.5,3.7c-1.8-0.1-4.7,0-7.6,0.5l0,0.1c2.8-0.6,5.8-0.6,7.6-0.5c0.1,0.2,0.2,0.4,0.3,0.6
			c-1.8,0.1-4.9,0.3-7.8,1.1l0,0.1c3-0.8,6.1-1.1,7.9-1.1c1.1,2,3.2,3.3,7,3.7c-0.5,0.4-1.1,1-1.3,2c-0.7,0.3-3,1.2-4.4-1.2
			c0,0-0.8-1.4-2.3-1.5c0,0-1.4,0-0.1,0.9c0,0,1,0.5,1.6,2.2c0,0,0.9,2.9,5.1,2v3c0,0-0.1,1.1-1.1,1.4c0,0-0.6,0.4,0,0.6
			c0,0,2.7,0.2,2.7-2V5.7c0,0-0.1-1.3,0.5-1.8v5.4c0,0,0,1.3-0.7,1.8c0,0-0.4,0.8,0.5,0.6c0,0,1.9-0.3,2-2.4l0-5.5h0.4l0,5.5
			c0.1,2.2,2,2.4,2,2.4c1,0.2,0.5-0.6,0.5-0.6C2.1,10.7,2,9.4,2,9.4V4c0.6,0.5,0.5,1.7,0.5,1.7V9c0,2.2,2.7,2,2.7,2
			c0.6-0.2,0-0.6,0-0.6C4.3,10,4.3,9,4.3,9V4.7c0-1.7-0.7-2.6-1.4-3c4-0.4,6-1.7,6.9-3.7c1.8,0,4.9,0.3,8,1.1l0-0.1
			c-3-0.9-6.2-1.1-8-1.1C9.9-2.4,9.9-2.6,10-2.9C11.8-2.9,14.8-2.9,17.8-2.4"/>
		<path class="st1" d="M6.5-6.8C7.4-6,7.9-5.1,7.9-4c0,4.8-3.6,4.9-8,4.9s-8-0.7-8-4.9c0-1,0.5-2,1.4-2.7c1.4-1.3,3.9-0.6,6.6-0.6
			C2.6-7.4,5.1-8.1,6.5-6.8"/>
		<path class="st3" d="M-2.7-3.8c0,1.3-0.7,2.4-1.7,2.4s-1.7-1.1-1.7-2.4s0.7-2.4,1.7-2.4S-2.7-5.1-2.7-3.8"/>
		<path class="st2" d="M-3.3-3.8c0,0.9-0.5,1.6-1.1,1.6s-1.1-0.7-1.1-1.6S-5-5.3-4.4-5.3S-3.3-4.6-3.3-3.8"/>
		<path class="st3" d="M6.1-3.8c0,1.3-0.7,2.4-1.7,2.4S2.8-2.5,2.8-3.8s0.7-2.4,1.7-2.4S6.1-5.1,6.1-3.8"/>
		<path class="st2" d="M5.6-3.8c0,0.9-0.5,1.6-1.1,1.6S3.4-2.9,3.4-3.8s0.5-1.6,1.1-1.6S5.6-4.6,5.6-3.8 M0.3-1.7
			c0,0.2-0.2,0.4-0.4,0.4s-0.4-0.2-0.4-0.4s0.2-0.4,0.4-0.4S0.3-1.9,0.3-1.7 M-1-0.6c0,0,0-0.1,0-0.1s0.1-0.1,0.1,0s0.1,0,0.1,0.1
			c0.1,0.3,0.4,0.5,0.7,0.5s0.6-0.2,0.7-0.5c0-0.1,0.1-0.1,0.2-0.1s0.1,0.1,0.1,0.2c-0.1,0.4-0.5,0.7-1,0.7S-0.9-0.2-1-0.6"/>
		<g>
			<path class="st1" d="M-10.2,1.3c0,0.1-0.1,0.2-0.3,0.2s-0.3-0.1-0.3-0.2s0.1-0.2,0.3-0.2S-10.2,1.2-10.2,1.3 M-9.4,1.7
				c0,0.1-0.1,0.2-0.3,0.2S-10,1.8-10,1.7s0.1-0.2,0.3-0.2S-9.4,1.6-9.4,1.7 M-8.9,2.3c0,0.1-0.1,0.2-0.3,0.2s-0.3-0.1-0.3-0.2
				s0.1-0.2,0.3-0.2S-8.9,2.2-8.9,2.3 M-8.5,3c0,0.1-0.1,0.2-0.3,0.2S-9.1,3.1-9.1,3s0.1-0.2,0.3-0.2S-8.5,2.8-8.5,3 M-8,3.6
				c0,0.1-0.1,0.2-0.3,0.2s-0.3-0.1-0.3-0.2s0.1-0.2,0.3-0.2S-8,3.5-8,3.6 M-7.3,4.1c0,0.1-0.1,0.2-0.3,0.2s-0.3-0.1-0.3-0.2
				s0.1-0.2,0.3-0.2S-7.3,4-7.3,4.1"/>
			<g>
				<path id="D_6_" class="st1" d="M-6.4,4.5c0,0.1-0.1,0.2-0.3,0.2S-7,4.6-7,4.5s0.1-0.2,0.3-0.2S-6.4,4.4-6.4,4.5"/>
			</g>
			<g>
				<path id="D_5_" class="st1" d="M-5.5,4.5c0,0.1-0.1,0.2-0.3,0.2S-6,4.6-6,4.5s0.1-0.2,0.3-0.2S-5.5,4.4-5.5,4.5"/>
			</g>
			<path class="st1" d="M-4.5,4.3c0,0.1-0.1,0.2-0.3,0.2s-0.3-0.1-0.3-0.2S-5,4.1-4.8,4.1S-4.5,4.2-4.5,4.3"/>
		</g>
	</g>
</symbol>
<use xlink:href="#A"  width="35.6" height="31.4" id="XMLID_1_" x="-17.8" y="-15.6" transform="matrix(1 0 0 1 18.3095 15.7409)" style="overflow:visible;"/>
</svg>
